<svg xmlns="http://www.w3.org/2000/svg" fill="none" viewBox="0 0 283 27"><path fill="#fff" d="M14.1 18.5c0 1.4-.7 2.2-2 2.3l-9.9.6c-1.5 0-2.2-.7-2.2-2V3c0-1.3.8-2 2.3-2 1.4 0 2.2.7 2.2 2v13.8l7.4-.5c1.5 0 2.2.7 2.2 2.2Zm10.1-1.4a3 3 0 0 0 2.4-1c.5-.5 1-.7 1.6-.7 1.4 0 2.1.7 2.1 2.2 0 .5-.2 1-.5 1.4a7 7 0 0 1-5.6 2.4c-2.4 0-4.4-.7-6-2.1a6.6 6.6 0 0 1-2.2-5c0-2.2.7-4 2-5.4a7.1 7.1 0 0 1 5.5-2.4c1 0 2 .1 3 .4.7.3 1.3.7 2 1.2 1 .9 1.6 1.8 1.6 2.8 0 .8-.5 1.3-1.4 1.8l-7.2 3.6c.7.6 1.6.8 2.7.8Zm-.7-6.3c-1.4 0-2.5.8-3 2.6l4.4-2.5-1.4-.1Zm22.3-3.9c.9.4 1.3 1.1 1.3 2.2v10.3c0 1.4-.7 2-2.2 2-.8 0-1.3-.2-1.8-.8a8 8 0 0 1-3 .6c-1.9 0-3.4-.6-4.6-1.8a6.5 6.5 0 0 1-2-4.8 12 12 0 0 1 1.8-5.4 7.4 7.4 0 0 1 6.2-3.1l1.8.1 2.5.7Zm-5.7 10 1.3-.3 1.3-.5v-5.5l-1.1-.2c-1.1 0-2 .5-2.7 1.4-.6.8-.9 1.7-.9 2.6 0 1.6.7 2.4 2.1 2.4ZM58.8 6.4c1.3 0 2.2.4 2.9 1.1.5.6.7 1.3.7 2.2v.8c0 1.3-.7 2-2.1 2-.7 0-1.3-.3-1.7-.7a2 2 0 0 1-.5-1.3c-.5.1-1.2.7-2 1.6-.3.5-.6 1-.6 1.8v5.6c0 1.3-.7 2-2.2 2-1.5 0-2.2-.7-2.2-2v-11c0-1.4.7-2 2.2-2a2 2 0 0 1 2 1.1c1-.8 2.2-1.2 3.5-1.2Zm8.5 0c1.2 0 2 .7 2.1 2a6 6 0 0 1 4.3-2c2 0 3.5.9 4.3 2.5.4.8.6 1.7.8 2.9l.2 3.8v3.8c0 1.4-.8 2-2.2 2-1.5 0-2.2-.6-2.2-1.9v-3.4a33.4 33.4 0 0 0-.4-4.9l-.4-.4h-.3c-.4 0-.8.1-1.1.4-.6.3-1.1 1-1.7 1.8a8.1 8.1 0 0 0-1.3 4.3v2.2c0 1.3-.7 2-2.1 2-1.5 0-2.2-.7-2.2-2v-11c0-1.4.7-2 2.2-2Z"/><path fill="#30BCED" d="M101 .8c1 0 1.8.6 2 1.6l3.9 16v.9c0 1.3-.6 2-2.1 2-1.2 0-2-.6-2.2-1.8l-2.2-10-3.7 10.3c-.4 1-1 1.4-2.2 1.4-1 0-1.7-.5-2-1.5l-3.1-9.5-2 9.3c-.3 1.2-1 1.7-2.2 1.7-1.5 0-2.2-.6-2.2-1.8V19l.1-.7L87 2.5c0-1.1.9-1.7 2-1.7 1 0 1.7.5 2 1.5l3.6 11.2 4-11.2c.4-1 1.2-1.5 2.3-1.5Zm21 5.4c1.5 0 2.2.7 2.2 2v11c0 1.4-.7 2-2.2 2-.7 0-1.4-.3-1.8-.8-1.2.6-2.4 1-3.7 1-1.9 0-3.2-.6-4-1.6-1-1.3-1.5-3.6-1.5-7v-.5a25 25 0 0 1 .2-3.3l.1-.8c.2-1.3 1-2 2.2-2 .5 0 1 .2 1.5.5.4.4.7.8.7 1.4l-.3 2.3a20.5 20.5 0 0 0 .4 6.2l.4.5h.3a5 5 0 0 0 2-.4l1.3-.8V8c0-1.2.8-1.9 2.2-1.9Zm9-5.2c1.4 0 2.1.8 2.1 2.2v16.1c0 .6-.2 1-.7 1.4-.4.4-1 .5-1.5.5-1.4 0-2.2-.6-2.2-1.9v-16c0-1.5.8-2.2 2.2-2.2Zm13.2 5.2h1.8c1.4 0 2.2.8 2.2 2.3 0 1.4-.8 2.1-2.2 2.1h-1.8v8.8c0 1.2-.8 1.9-2.2 1.9-1.5 0-2.2-.7-2.2-2v-8.7H138c-1.4 0-2.2-.7-2.2-2.1 0-1.5.8-2.3 2.3-2.3h1.7V3.8c0-1.5.7-2.2 2.2-2.2 1.4 0 2.2.7 2.2 2.2v2.4Zm8.9-.8c-1.4 0-2.1-.7-2-2.2v-1c0-1.5.8-2.2 2.2-2.2a2 2 0 0 1 1.5.7c.4.4.6 1 .6 1.5v1.2c0 1.3-.8 2-2.3 2Zm0 1c1.6 0 2.3.7 2.3 2l-.1 10.8c0 1.4-.8 2-2.2 2-1.5 0-2.3-.6-2.3-2l.2-10.8c0-1.3.7-2 2.2-2Zm10.2.7c1.2-.6 2.6-.9 4.1-.9a5 5 0 0 1 4.4 2.3c1 1.3 1.4 2.9 1.4 4.6 0 .9 0 1.8-.3 2.6-.2 1-.6 1.8-1.1 2.6-.6.8-1.4 1.5-2.3 2a9 9 0 0 1-5.8.5v3.6c0 1.4-.7 2.1-2.2 2.1-1.4 0-2.2-.7-2.2-2.1V8.3c0-1.4.8-2 2.3-2a2 2 0 0 1 1.7.8Zm.4 9.1c1 .3 1.7.4 2.3.4 2 0 3-1.1 3-3.5a4 4 0 0 0-.5-1.8c-.3-.6-.7-.9-1.3-.9a6 6 0 0 0-2.2.5c-.5.1-1 .4-1.3.7v4.6ZM179.5 1c1.5 0 2.2.8 2.2 2.2v16.1c0 .6-.2 1-.7 1.4-.4.4-1 .5-1.5.5-1.5 0-2.2-.6-2.2-1.9v-16c0-1.5.7-2.2 2.2-2.2Zm8.6 4.4c-1.4 0-2.1-.7-2.1-2.2v-1c0-1.5.8-2.2 2.2-2.2a2 2 0 0 1 1.6.7c.4.4.6 1 .6 1.5v1.2c0 1.3-.8 2-2.3 2Zm0 1c1.5 0 2.3.7 2.3 2l-.2 10.8c0 1.4-.7 2-2.2 2-1.5 0-2.2-.6-2.2-2l.1-10.8c0-1.3.8-2 2.2-2Zm13 10.6c.7 0 1.2-.2 1.7-.4a3 3 0 0 0 1-1l.3-.3.4-.3a2 2 0 0 1 1.2-.4c1.5 0 2.2.7 2.2 2.2 0 .4-.2.9-.5 1.3a8 8 0 0 1-2.5 2.2 7 7 0 0 1-3.4 1 8 8 0 0 1-5.3-2 6 6 0 0 1-2.3-4.7 7.8 7.8 0 0 1 .7-3.4A8.6 8.6 0 0 1 197 8a6.5 6.5 0 0 1 4.4-1.8c1.1 0 2.1.3 3 .7a7 7 0 0 1 2.1 1.7c.4.5.6 1 .6 1.5 0 1.5-.8 2.2-2.2 2.2-.7 0-1.2-.2-1.5-.7-.7-.7-1.3-1-2-1-.4 0-1 .2-1.5.7-.6.4-1 .9-1.3 1.4-.3.6-.4 1.2-.4 1.7 0 .9.4 1.6 1.2 2a3.9 3.9 0 0 0 1.7.5Zm22.3-10.3c.8.4 1.3 1.1 1.3 2.2v10.3c0 1.4-.8 2-2.2 2-.8 0-1.4-.2-1.8-.8a8 8 0 0 1-3 .6c-1.9 0-3.5-.6-4.7-1.8a6.5 6.5 0 0 1-1.8-4.8c0-.8 0-1.7.4-2.6.3-1 .7-2 1.3-2.8a7.4 7.4 0 0 1 6.2-3.1l1.7.1 2.6.7Zm-5.7 10 1.3-.3 1.2-.5v-5.5l-1-.2c-1.2 0-2 .5-2.8 1.4-.6.8-.8 1.7-.8 2.6 0 1.6.7 2.5 2 2.5Zm18.1-10.5h1.8c1.4 0 2.2.8 2.2 2.3 0 1.4-.8 2.1-2.2 2.1h-1.8v8.8c0 1.2-.8 1.9-2.2 1.9-1.5 0-2.2-.7-2.2-2v-8.7h-1.8c-1.4 0-2.2-.7-2.2-2.1 0-1.5.8-2.3 2.3-2.3h1.7V3.8c0-1.5.7-2.2 2.2-2.2 1.4 0 2.2.7 2.2 2.2v2.4Zm8.9-.8c-1.4 0-2.1-.7-2-2.2v-1c0-1.5.8-2.2 2.2-2.2a2 2 0 0 1 1.5.7c.4.4.6 1 .6 1.5v1.2c0 1.3-.8 2-2.3 2Zm0 1c1.6 0 2.3.7 2.3 2l-.1 10.8c0 1.4-.8 2-2.2 2-1.5 0-2.3-.6-2.3-2l.2-10.8c0-1.3.7-2 2.2-2Zm20.6 6.8c0 2.2-.8 4-2.3 5.7a7.4 7.4 0 0 1-5.5 2.3 6.9 6.9 0 0 1-7-7c0-2.1.8-4 2.3-5.6a7.3 7.3 0 0 1 5.5-2.4c2 0 3.6.7 5 2.2 1.3 1.3 2 3 2 4.8Zm-4.5.2a3 3 0 0 0-.8-2.1c-.6-.6-1.2-.9-1.8-.9a3 3 0 0 0-2.2 1 4 4 0 0 0-1 2.8c0 1.9.8 2.9 2.5 2.9a3 3 0 0 0 2.2-1 4 4 0 0 0 1-2.7Zm10.4-7.2c1.3 0 2 .7 2.2 2a6 6 0 0 1 4.2-2c2.1 0 3.6.9 4.3 2.5.4.8.6 1.7.8 2.9l.2 3.8v3.8c0 1.4-.8 2-2.2 2-1.4 0-2.2-.6-2.2-1.8v-3.5a33.7 33.7 0 0 0-.4-4.9l-.4-.4h-.2c-.5 0-.9.1-1.2.4-.6.3-1.1 1-1.6 1.8a8.1 8.1 0 0 0-1.4 4.3v2.2c0 1.3-.7 2-2.1 2-1.5 0-2.2-.7-2.2-2v-11c0-1.4.7-2 2.2-2Z"/></svg>