<svg xmlns="http://www.w3.org/2000/svg" fill="none" viewBox="0 0 400 32"><path fill="#fff" d="M337.7 25.8c-1.8 0-2.7-1-2.7-2.8 0-.9.3-1.6.9-2.2.5-.6 1.2-1 2-1 1.8 0 2.7 1 2.7 2.9 0 .8-.3 1.6-.8 2.2-.6.6-1.3 1-2.1 1ZM347.6 7.5c1.4 0 2.2.7 2.4 2.2a7 7 0 0 1 5-2.2c2.4 0 4.1 1 5 2.8.5 1 .8 2 1 3.4l.1 4.5v4.4c0 1.6-.8 2.4-2.5 2.4s-2.5-.8-2.5-2.3v-4a38.8 38.8 0 0 0-.5-5.6c-.2-.3-.3-.5-.5-.5H354.8c-.5 0-1 .1-1.3.4-.7.4-1.3 1-2 2.1a9.5 9.5 0 0 0-1.5 5v2.5c0 1.6-.8 2.4-2.5 2.4s-2.6-.8-2.6-2.3v-13c0-1.5 1-2.2 2.7-2.2ZM375.1 20c1.1 0 2-.5 2.8-1.3.6-.5 1.2-.8 1.8-.8 1.7 0 2.6.9 2.6 2.5 0 .7-.3 1.2-.7 1.7A8.2 8.2 0 0 1 375 25c-2.8 0-5.1-.9-7-2.6a7.7 7.7 0 0 1-2.5-5.8 9 9 0 0 1 2.3-6.3 8.3 8.3 0 0 1 6.4-2.8c1.2 0 2.3.2 3.4.5.9.3 1.6.8 2.3 1.3 1.3 1.1 2 2.2 2 3.4 0 .8-.6 1.5-1.6 2L372 19a5 5 0 0 0 3.1 1Zm-.8-7.5c-1.7 0-2.9 1-3.5 3l5-2.8-1.5-.2ZM394.7 7.5h2.1c1.8 0 2.6.8 2.6 2.5s-.8 2.6-2.6 2.6h-2v10.2c0 1.5-1 2.2-2.6 2.2-1.7 0-2.6-.7-2.6-2.2V12.6h-2c-1.7 0-2.6-.9-2.6-2.6 0-1.7.9-2.5 2.6-2.5h2v-3c0-1.6.9-2.5 2.6-2.5 1.7 0 2.5.9 2.5 2.6v2.9ZM17.2 21.4c0 1.7-.8 2.5-2.4 2.7l-11.5.7c-1.7 0-2.6-.8-2.6-2.4v-19C.7 1.8 1.7 1 3.4 1 5 1 6 1.8 6 3.4v16l8.6-.5c1.7 0 2.6.8 2.6 2.5ZM29 19.8c1.1 0 2-.4 2.8-1.2.6-.5 1.2-.8 1.8-.8 1.7 0 2.5.8 2.5 2.5 0 .7-.2 1.2-.6 1.7a8.2 8.2 0 0 1-6.5 2.8c-2.8 0-5.1-.8-7-2.5a7.7 7.7 0 0 1-2.6-5.9 9 9 0 0 1 2.4-6.2 8.3 8.3 0 0 1 6.4-2.8c1.2 0 2.3.2 3.4.5.8.3 1.6.8 2.3 1.3 1.3 1.1 2 2.2 2 3.4 0 .8-.6 1.5-1.6 2L25.8 19a5 5 0 0 0 3.2 1Zm-.8-7.4c-1.7 0-2.9 1-3.5 3l5-2.8-1.5-.2ZM54.2 7.9c1 .4 1.5 1.3 1.5 2.6v12c0 1.5-.9 2.3-2.6 2.3-.8 0-1.5-.3-2-1-1.3.6-2.5.8-3.5.8-2.2 0-4-.7-5.5-2.2a7.6 7.6 0 0 1-2.2-5.6 11 11 0 0 1 2-6.2 8.6 8.6 0 0 1 7.3-3.7 42.7 42.7 0 0 1 5 1Zm-6.7 11.6 1.5-.3 1.5-.6.1-6.5-1.3-.1c-1.3 0-2.4.5-3.2 1.6-.7 1-1 2-1 3 0 2 .8 2.9 2.4 2.9ZM69.4 7.3c1.4 0 2.5.4 3.3 1.3.6.7.9 1.5.9 2.5v1c0 1.5-.8 2.3-2.5 2.3-.8 0-1.5-.3-2-.8-.3-.5-.5-1-.5-1.6a6 6 0 0 0-2.3 2c-.5.5-.7 1.2-.7 2v6.6c0 1.5-1 2.2-2.6 2.2-1.8 0-2.6-.7-2.6-2.2V9.7c0-1.6.8-2.3 2.6-2.3 1 0 1.8.4 2.2 1.3 1.3-1 2.7-1.4 4.2-1.4ZM79.3 7.3c1.4 0 2.2.8 2.5 2.2a7 7 0 0 1 4.9-2.1c2.5 0 4.2 1 5 2.8.5.9.8 2 1 3.4l.2 4.5v4.4c0 1.6-.9 2.3-2.5 2.3-1.7 0-2.6-.7-2.6-2.2v-4a39 39 0 0 0-.5-5.7l-.4-.4H86.6c-.5 0-1 0-1.4.4-.6.4-1.3 1-2 2.1a9.5 9.5 0 0 0-1.4 5v2.5c0 1.6-.9 2.3-2.6 2.3-1.7 0-2.5-.7-2.5-2.2v-13c0-1.5.9-2.3 2.6-2.3Z"/><path fill="#30BCED" d="M118 1.1c1.3 0 2 .7 2.4 2l4.4 18.6.1.4v.6c0 1.5-.8 2.3-2.5 2.3-1.4 0-2.2-.7-2.5-2l-2.6-11.7-4.4 12c-.4 1.1-1.2 1.7-2.4 1.7-1.3 0-2-.6-2.5-1.8L104.5 12 102 23c-.3 1.3-1.2 2-2.6 2-1.7 0-2.5-.7-2.5-2.2v-.5l.2-.8 4.3-18.4c.3-1.3 1.1-2 2.6-2 1.2 0 2 .6 2.4 1.8l4.2 13 4.7-13c.4-1.2 1.3-1.8 2.6-1.8ZM142.5 7.5c1.7 0 2.6.7 2.6 2.2v13c0 1.5-.9 2.3-2.6 2.3-.9 0-1.6-.4-2.1-1a8.7 8.7 0 0 1-4.3 1c-2.2 0-3.8-.5-4.7-1.7-1.1-1.5-1.7-4.2-1.8-8.2v-.5a29 29 0 0 1 .3-4l.1-.8c.3-1.6 1.1-2.3 2.5-2.3.7 0 1.3.2 1.8.5.5.5.8 1 .8 1.7l-.3 2.6a23.9 23.9 0 0 0 .5 7.2l.4.6h.4c.7 0 1.4-.1 2.3-.5a6 6 0 0 0 1.5-.9v-.3l.1-8.7c0-1.5.8-2.2 2.5-2.2ZM153 1.5c1.6 0 2.5.8 2.5 2.5v18.7a2 2 0 0 1-.8 1.6c-.6.5-1.1.7-1.8.7-1.7 0-2.5-.8-2.5-2.3V4c0-1.7.8-2.5 2.5-2.5ZM168.4 7.5h2c1.8 0 2.6.8 2.6 2.6 0 1.7-.8 2.5-2.5 2.5h-2.1v10.2c0 1.5-.9 2.2-2.6 2.2-1.7 0-2.5-.7-2.5-2.2V12.6h-2.1c-1.7 0-2.6-.8-2.6-2.5 0-1.8 1-2.6 2.7-2.6h2V4.6c0-1.7.8-2.6 2.5-2.6s2.6.9 2.6 2.6v2.9ZM178.9 6.5c-1.7 0-2.6-.8-2.5-2.5V2.7c0-1.7 1-2.5 2.6-2.5.7 0 1.3.3 1.8.8s.7 1.1.7 1.8V4c0 1.6-1 2.4-2.6 2.4Zm0 1.2c1.7 0 2.6.7 2.6 2.3l-.2 12.6c0 1.6-.8 2.4-2.6 2.4-1.7 0-2.5-.8-2.5-2.4l.1-12.6c0-1.6.9-2.3 2.6-2.3ZM190.7 8.5c1.4-.7 3-1 4.8-1a6 6 0 0 1 5.2 2.6 9 9 0 0 1 1.6 5.4c0 1-.1 2-.4 3a8.8 8.8 0 0 1-1.3 3c-.7 1-1.6 1.8-2.7 2.3-1.2.6-2.6 1-4.2 1-.8 0-1.6-.2-2.5-.4v4.2c0 1.7-.8 2.6-2.5 2.6s-2.6-.9-2.6-2.6V10c0-1.6.9-2.4 2.6-2.4.8 0 1.5.3 2 1Zm.5 10.6c1 .3 2 .5 2.7.5 2.3 0 3.5-1.4 3.5-4 0-.9-.2-1.6-.6-2.2-.4-.7-.9-1-1.5-1-1 0-1.9.1-2.6.5-.6.2-1 .5-1.5.9V19ZM209.6 1.5c1.7 0 2.6.8 2.6 2.5v18.7a2 2 0 0 1-.8 1.6c-.6.5-1.1.7-1.8.7-1.7 0-2.5-.8-2.5-2.3V4c0-1.7.8-2.5 2.5-2.5ZM219.7 6.5c-1.7 0-2.5-.8-2.5-2.5V2.7c.1-1.7 1-2.5 2.6-2.5.7 0 1.3.3 1.8.8s.7 1.1.7 1.8V4c0 1.6-1 2.4-2.6 2.4Zm0 1.2c1.7 0 2.6.7 2.6 2.3l-.2 12.6c0 1.6-.8 2.4-2.5 2.4-1.8 0-2.6-.8-2.6-2.4L217 10c0-1.6.9-2.3 2.6-2.3ZM234.8 20a4 4 0 0 0 2-.5c.4-.2.8-.6 1.2-1l.3-.4.4-.4c.5-.3 1-.5 1.5-.5 1.7 0 2.5.9 2.5 2.6 0 .5-.2 1-.5 1.5-.8 1-1.7 1.9-2.9 2.6a8.1 8.1 0 0 1-4 1c-2.4 0-4.5-.6-6.2-2a7 7 0 0 1-2.7-5.7 9 9 0 0 1 .9-4 10 10 0 0 1 2.8-3.7 7.8 7.8 0 0 1 8.6-1.3c.8.4 1.6 1.1 2.4 2 .5.6.7 1.2.7 1.8 0 1.7-.9 2.5-2.6 2.5-.7 0-1.3-.2-1.7-.7-.8-.9-1.5-1.3-2.3-1.3-.5 0-1.1.3-1.8.8s-1.1 1.1-1.5 1.7a5 5 0 0 0-.5 2c0 1 .5 1.8 1.4 2.4a4.5 4.5 0 0 0 2 .6ZM260.8 8c1 .4 1.5 1.3 1.5 2.6v12c0 1.6-.8 2.4-2.6 2.4-.8 0-1.5-.3-2-1-1.3.5-2.4.7-3.5.7-2.2 0-4-.7-5.5-2.1a7.6 7.6 0 0 1-2.1-5.6 11 11 0 0 1 2-6.2 8.6 8.6 0 0 1 7.2-3.7 42.8 42.8 0 0 1 5 1Zm-6.7 11.6c.5 0 1 0 1.6-.3l1.4-.5.1-6.5-1.3-.2c-1.3 0-2.4.6-3.2 1.7-.7.9-1 1.9-1 3 0 1.9.8 2.8 2.4 2.8ZM275.3 7.5h2c1.8 0 2.6.8 2.6 2.6 0 1.7-.8 2.5-2.5 2.5h-2.1v10.2c0 1.5-.9 2.2-2.6 2.2-1.7 0-2.5-.7-2.5-2.2V12.6H268c-1.7 0-2.6-.8-2.6-2.5 0-1.8 1-2.6 2.7-2.6h2V4.6c0-1.7.8-2.6 2.5-2.6s2.6.9 2.6 2.6v2.9ZM285.8 6.5c-1.7 0-2.6-.8-2.5-2.5V2.7c.1-1.7 1-2.5 2.6-2.5.7 0 1.3.3 1.8.8s.7 1.1.7 1.8V4c0 1.6-1 2.4-2.6 2.4Zm0 1.2c1.7 0 2.6.7 2.6 2.3l-.2 12.6c0 1.6-.8 2.4-2.5 2.4-1.8 0-2.6-.8-2.6-2.4l.1-12.6c0-1.6.9-2.3 2.6-2.3ZM309.7 15.6a9 9 0 0 1-2.7 6.6 8.7 8.7 0 0 1-6.4 2.8 8 8 0 0 1-8-8.2 9 9 0 0 1 2.6-6.5c1.7-1.9 3.9-2.8 6.4-2.8 2.3 0 4.2.8 5.8 2.5a8 8 0 0 1 2.3 5.6Zm-5.2.3c0-1-.3-1.9-1-2.6-.6-.6-1.3-1-2-1-1 0-1.9.5-2.6 1.3-.8.9-1.2 2-1.2 3.1 0 2.3 1 3.4 2.9 3.4 1 0 1.8-.4 2.6-1.2.9-.9 1.3-1.9 1.3-3ZM316.7 7.5c1.4 0 2.2.7 2.4 2.2a7 7 0 0 1 5-2.2c2.4 0 4.1 1 5 2.9.5.8.8 2 1 3.3l.2 4.5v4.5c0 1.5-1 2.3-2.6 2.3-1.7 0-2.5-.8-2.5-2.2v-4a38.8 38.8 0 0 0-.5-5.7c-.1-.3-.3-.5-.5-.5H324c-.5 0-1 .1-1.3.4-.7.4-1.3 1.1-2 2.1a9.5 9.5 0 0 0-1.5 5v2.6c0 1.5-.8 2.3-2.5 2.3s-2.5-.8-2.5-2.3V9.8c0-1.5.8-2.3 2.6-2.3Z"/></svg>