<svg xmlns="http://www.w3.org/2000/svg" fill="none" viewBox="0 0 15 15"><path fill="#fff" d="M7.5 0a7.5 7.5 0 0 0-2.7 14.5c0-.6-.2-1.5 0-2.2l.9-3.7s-.2-.4-.2-1.1c0-1 .6-1.8 1.3-1.8.6 0 1 .5 1 1 0 .7-.5 1.6-.7 2.5-.1.8.4 1.4 1.1 1.4 1.4 0 2.4-1.4 2.4-3.5 0-1.8-1.3-3-3.1-3A3.2 3.2 0 0 0 4 7.3c0 .7.2 1.4.5 1.8a.2.2 0 0 1 .1.2l-.2.8c0 .2-.1.2-.3.1-.9-.4-1.5-1.8-1.5-2.9 0-2.3 1.7-4.5 5-4.5 2.6 0 4.6 1.8 4.6 4.3 0 2.6-1.6 4.7-3.9 4.7-.8 0-1.5-.4-1.7-.9l-.5 1.8c-.2.7-.6 1.5-1 2A7.5 7.5 0 1 0 7.6 0Z"/></svg>